{"title":"JAG.S04.season.4.DVDRip.XviD-SAiNTS","uid":5290267,"size":8808306140,"categoryP":"video","categoryS":"tv_shows","magnet":"?xt=urn:btih:e4831682f741a07490864c204fb5648f863b0b2b&amp;dn=JAG.S04.season.4.DVDRip.XviD-SAiNTS&amp;tr=udp%3A%2F%2Ftracker.openbittorrent.com%3A80&amp;tr=udp%3A%2F%2Fopen.demonii.com%3A1337&amp;tr=udp%3A%2F%2Ftracker.coppersurfer.tk%3A6969&amp;tr=udp%3A%2F%2Fexodus.desync.com%3A6969","seeders":1,"leechers":1,"uploader":"Kuthumi","files":48,"time":1263874952,"description":"Season 1: http://thepiratebay.se/torrent/5150860\nSeason 2: http://thepiratebay.se/torrent/5282717\nSeason 3: http://thepiratebay.se/torrent/5282718\nSeason 4: http://thepiratebay.se/torrent/5290267\nSeason 5: \nSeason 6:\nSeason 7:\nSeason 8:\nSeason 9:\nSeason 10:\n\nGeneral\nComplete name                    : JAG.S04E01.DVDRip.XviD-SAiNTS.avi\nFormat                           : AVI\nFormat/Info                      : Audio Video Interleave\nFile size                        : 350 MiB\nDuration                         : 43mn 41s\nOverall bit rate                 : 1 120 Kbps\nWriting application              : Nandub v1.0rc2\nWriting library                  : Nandub build 1852/release\n\nVideo\nID                               : 0\nFormat                           : MPEG-4 Visual\nFormat profile                   : AdvancedSimple@L5\nFormat settings, BVOP            : Yes\nFormat settings, QPel            : No\nFormat settings, GMC             : No warppoints\nFormat settings, Matrix          : Default (H.263)\nMuxing mode                      : Packed bitstream\nCodec ID                         : XVID\nCodec ID/Hint                    : XviD\nDuration                         : 43mn 41s\nBit rate                         : 982 Kbps\nWidth                            : 576 pixels\nHeight                           : 416 pixels\nDisplay aspect ratio             : 1.385\nFrame rate                       : 23.976 fps\nResolution                       : 24 bits\nColorimetry                      : 4:2:0\nScan type                        : Progressive\nBits/(Pixel*Frame)               : 0.171\nStream size                      : 307 MiB (88%)\nWriting library                  : XviD 1.2.0.dev47 (UTC 2006-11-01)\n\nAudio\nID                               : 1\nFormat                           : MPEG Audio\nFormat version                   : Version 1\nFormat profile                   : Layer 3\nCodec ID                         : 55\nCodec ID/Hint                    : MP3\nDuration                         : 43mn 41s\nBit rate mode                    : Variable\nBit rate                         : 125 Kbps\nChannel(s)                       : 2 channels\nSampling rate                    : 48.0 KHz\nResolution                       : 16 bits\nStream size                      : 39.1 MiB (11%)\nAlignment                        : Aligned on interleaves\nInterleave, duration             : 24 ms (0.58 video frame)\nInterleave, preload duration     : 141 ms\nWriting library                  : LAME3.93 \nEncoding settings                : -m j -V 1 -q 2 -lowpass 19.5 --vbr-new\n\n","torrent":{"xt":"urn:btih:e4831682f741a07490864c204fb5648f863b0b2b","amp;dn":"JAG.S04.season.4.DVDRip.XviD-SAiNTS","amp;tr":["udp%3A%2F%2Ftracker.openbittorrent.com%3A80","udp%3A%2F%2Fopen.demonii.com%3A1337","udp%3A%2F%2Ftracker.coppersurfer.tk%3A6969","udp%3A%2F%2Fexodus.desync.com%3A6969"],"infoHash":"e4831682f741a07490864c204fb5648f863b0b2b","infoHashBuffer":{"type":"Buffer","data":[228,131,22,130,247,65,160,116,144,134,76,32,79,181,100,143,134,59,11,43]},"announce":[],"urlList":[]}}